<?xml version="1.0" standalone="yes"?>
<svg xmlns="http://www.w3.org/2000/svg" width="1233" height="1233">
<path style="fill:#101011; stroke:none;" d="M0 0L0 1233L1233 1233L1233 0L0 0z"/>
<path style="fill:#12279f; stroke:none;" d="M537 10L537 11L607 7.00073L668 8C655.734 3.18176 638.992 5 626 5C596.847 5 565.603 3.48926 537 10z"/>
<path style="fill:#13205f; stroke:none;" d="M648 5L649 6L648 5M569 6L570 7L569 6z"/>
<path style="fill:#0f33ec; stroke:none;" d="M494 17L488 18L487 18C472.116 25.6406 452.991 26.8126 437.003 31.7965C405.655 41.5687 373.834 52.7767 345 68.7502C334.765 74.42 320.912 77.9911 313 87L310 86L291 98L289 100L265.196 116.043L248 127L236 137C227.682 147.343 215.902 154.59 206.36 163.539C180.952 187.37 155.431 214.037 134.423 242C101.361 286.009 71.3259 337.862 52.6911 390C42.9483 417.259 36.416 445.342 28.2954 473C22.6588 492.198 20.9683 513.191 18.814 533C13.234 584.309 12.8179 635.914 18.6956 687C26.8476 757.853 46.5117 824.985 78.0298 889C148.421 1031.97 286.33 1147.72 440 1191.47C541.101 1220.25 653.107 1224.68 756 1202.1C835.864 1184.57 910.164 1148.37 977 1102.03C1035.18 1061.7 1087.1 1007.8 1125.02 948C1166.94 881.913 1200.12 807.669 1212.46 730C1226.6 641 1229.28 549.933 1206.17 462C1178.41 356.409 1124.33 260.333 1047 183C973.464 109.464 882.543 57.3561 783 28.0522C756.818 20.3448 729.842 15.7059 703 11.2632C691.94 9.43262 678.421 11.0511 668 7L646 7.05945L605.001 7.00256L536 10.8784L494 17M666 7L667 8L666 7z"/>
<path style="fill:#12279f; stroke:none;" d="M669 9L675 8L669 9M677 8L677 9L684 9L677 8M685 9L686 10L685 9M687 9L687 10L692 10L687 9M517 14L536 11C531.22 9.40051 520.625 10.3103 517 14M693 10L694 11L693 10M695.667 10.3334L696.333 10.6666L695.667 10.3334M698.667 10.3334L699.333 10.6666L698.667 10.3334M704 11L704 12L708 12L704 11M709 12L709 13L714 13L709 12M512.667 13.3334L513.333 13.6666L512.667 13.3334M718.667 13.3334L719.333 13.6666L718.667 13.3334M506 14L506 15L509 15L506 14M510.667 14.3334L511.333 14.6666L510.667 14.3334M721 14L721 15L725 15L721 14M501 15L501 16L504 16L501 15M505 15L506 16L505 15M726 15L726 16L731 16L726 15M495 16L495 17L500 17L495 16M734.667 16.3334L735.333 16.6666L734.667 16.3334M488 19L494 17L488 19M740 17L741 18L740 17M486 18L487 19L486 18M741 18L741 19L745 19L741 18M482 19L482 20L486 20L482 19M746 19L747 20L746 19M748.667 19.3334L749.333 19.6666L748.667 19.3334z"/>
<path style="fill:#13205f; stroke:none;" d="M477 20L478 21L477 20z"/>
<path style="fill:#12279f; stroke:none;" d="M478.667 20.3334L479.333 20.6666L478.667 20.3334M752.667 20.3334L753.333 20.6666L752.667 20.3334M468 22L468 23L478 22L468 22M756 21L757 22L756 21z"/>
<path style="fill:#416bfd; stroke:none;" d="M575 22L575 23L583 23L575 22M655 22L655 23L665 23L655 22z"/>
<path style="fill:#12279f; stroke:none;" d="M761.667 22.3334L762.333 22.6666L761.667 22.3334M458 25L458 26L468 24L458 25M765.667 23.3334L766.333 23.6666L765.667 23.3334M769 24L770 25L769 24z"/>
<path style="fill:#13205f; stroke:none;" d="M457 25L458 26L457 25z"/>
<path style="fill:#12279f; stroke:none;" d="M773 25L774 26L773 25M454 26L454 27L457 27L454 26M584 29C581.298 24.0292 562.864 29.0333 558 29.8889C531.741 34.5085 505.894 35.0933 480 42.1389C407.17 61.9556 332.736 89.3179 272 136.417C254.273 150.163 235.877 163.36 219.028 178.222C211.99 184.43 206.331 192.056 199 198.222C194.265 202.204 188.633 207.172 184.861 212C182.582 214.917 180.881 219.475 177 220C170.112 229.538 161.001 236.988 153.555 246.059C137.211 265.97 122.283 288.043 108.812 309.99C72.065 369.859 47.9328 438.846 35.6238 508C23.269 577.412 22.8432 648.623 35.8097 718C52.1928 805.657 87.4727 889.872 140.178 962C305.657 1188.46 621.794 1266.74 874 1145.8C936.769 1115.7 995.103 1074.57 1043.1 1024.02C1093.94 970.493 1138.91 908.528 1165.44 839C1189.44 776.121 1206.7 711.593 1209.94 644C1212.06 599.806 1206.46 557.644 1202.09 514C1193.02 423.439 1147.7 334.306 1094.98 262C1079.61 240.909 1059.37 224.04 1044 203C1035.99 200.053 1026.53 187.473 1020.58 181.224C1011.95 172.158 999.72 164.201 990 156.01C960.184 130.884 925.649 109.35 890.973 91.6338C823.915 57.3743 750.633 36.7959 676 28.3058C655.895 26.0187 634.856 31.0397 615 28L615 27L626 27L607 27.7933L584 29M776.667 26.3334L777.333 26.6666L776.667 26.3334M450 27L451 28L450 27M446 28L446 29L449 29L446 28M784 28L785 29L784 28M443.667 29.3334L444.333 29.6666L443.667 29.3334M787.667 29.3334L788.333 29.6666L787.667 29.3334M437 31L437 32L442 31L437 31M790.667 30.3334L791.333 30.6666L790.667 30.3334M794 31L795 32L794 31M430 35L435 33L430 35M800 33L801 34L800 33M418 37L418 38L429 35L418 37M803.667 34.3334L804.333 34.6666L803.667 34.3334M806.667 35.3334L807.333 35.6666L806.667 35.3334M809.667 36.3334L810.333 36.6666L809.667 36.3334M812.667 37.3334L813.333 37.6666L812.667 37.3334M415 38L415 39L418 39L415 38M816 38L817 39L816 38M412.667 39.3334L413.333 39.6666L412.667 39.3334M818 39L819 40L818 39z"/>
<path style="fill:#13205f; stroke:none;" d="M819 39L820 40L819 39z"/>
<path style="fill:#12279f; stroke:none;" d="M409.667 40.3334L410.333 40.6666L409.667 40.3334M822 40L823 41L822 40M406.667 41.3334L407.333 41.6666L406.667 41.3334M402 43L402 44L406 43L402 43M827 42L828 43L827 42z"/>
<path style="fill:#0f33ec; stroke:none;" d="M479 43L479 44L482 44L479 43z"/>
<path style="fill:#12279f; stroke:none;" d="M398.667 44.3334L399.333 44.6666L398.667 44.3334M832 44L833 45L832 44M396.667 45.3334L397.333 45.6666L396.667 45.3334M834 45L835 46L834 45M393 46L394 47L393 46z"/>
<path style="fill:#13205f; stroke:none;" d="M157 274L155 273C134.919 303.303 113.348 331.821 96.7431 364.059C93.9068 369.566 93.1886 376.242 90.8284 382C87.0406 391.242 80.8086 400.03 77.4605 409.142C75.4883 414.509 75.3003 420.536 73.4516 426C64.3448 452.915 53.76 479.926 47.8369 508C46.1591 515.953 47.2372 524.251 45.9387 532.305C38.0339 581.333 35.9812 631.933 40.2373 681C43.7116 721.053 54.4893 759.71 66.6215 798C145.43 1046.73 397.14 1213.03 657 1194.89C811.862 1184.07 965.301 1110.86 1064.74 990C1090.86 958.261 1112.97 923.676 1133.16 888C1141.71 872.894 1145.61 850.277 1158 838C1157.79 829.007 1163.18 822.087 1166.02 814C1170.95 799.968 1174.9 785.418 1178.94 771C1184.04 752.826 1189.12 733.734 1191.74 715C1193.26 704.164 1191.77 692.931 1193.18 682C1194.22 673.913 1197.08 666.311 1197.7 658C1199.31 636.2 1197.1 613.788 1196.06 592C1195.66 583.634 1197.56 575.306 1196.8 567C1195.89 557.005 1192.51 547.776 1191.23 538C1182.14 468.581 1160.52 403.144 1126.27 342C1118.7 328.481 1112.31 312.692 1103.55 300.003C1088.81 278.651 1069.61 260.177 1052.8 240.609C1040.33 226.08 1027.91 210.596 1013.63 197.823C867.576 67.2163 657.695 12.7935 467 64.7155C417.213 78.2714 369.926 99.1149 325 124.465C276.406 151.885 234.63 186.682 196.193 226.937C183.27 240.472 162.338 255.102 157 274z"/>
<path style="fill:#12279f; stroke:none;" d="M837 46L838 47L837 46M391 47L392 48L391 47M839.667 47.3334L840.333 47.6666L839.667 47.3334M388 48L388 49L391 49L388 48M842 48L843 49L842 48M385 49L386 50L385 49M845 49L846 50L845 49M383.667 50.3334L384.333 50.6666L383.667 50.3334M381 51L382 52L381 51M850 51L851 52L850 51z"/>
<path style="fill:#13205f; stroke:none;" d="M378 52L379 53L378 52z"/>
<path style="fill:#12279f; stroke:none;" d="M379 52L380 53L379 52M852 52L853 53L852 52M376.667 53.3334L377.333 53.6666L376.667 53.3334M375 54L376 55L375 54M371.667 55.3334L372.333 55.6666L371.667 55.3334M859 55L860 56L859 55M369.667 56.3334L370.333 56.6666L369.667 56.3334M861 56L862 57L861 56M367 57L368 58L367 57M362.667 59.3334L363.333 59.6666L362.667 59.3334M868 59L869 60L868 59M360 60L361 61L360 60M870 60L871 61L870 60M358 61L359 62L358 61M356 62L356 64L358 62L356 62M353.667 63.3334L354.333 63.6666L353.667 63.3334M877 63L878 64L877 63M351.667 64.3334L352.333 64.6666L351.667 64.3334M879 64L880 65L879 64M349.667 65.3334L350.333 65.6666L349.667 65.3334M881 65L882 66L881 65M347.667 66.3334L348.333 66.6666L347.667 66.3334M883 66L884 67L883 66M343 68L343 69L347 67L343 68M885 67L886 68L885 67M887 68L888 69L887 68M335 72L335 73L343 69L335 72M889 69L890 70L889 69M891 70L892 71L891 70M893 71L894 72L893 71z"/>
<path style="fill:#13205f; stroke:none;" d="M895 72L896 73L895 72z"/>
<path style="fill:#12279f; stroke:none;" d="M333.667 73.3334L334.333 73.6666L333.667 73.3334z"/>
<path style="fill:#101011; stroke:none;" d="M308 171L285 182L271 197C263.513 197.706 257.501 206.735 252.432 211.913C240.028 224.584 226.6 235.961 213.522 247.803C207.801 252.984 208.985 260.751 200 262C196.742 270.966 189.142 274.681 183.89 281.931C173.014 296.946 164.092 314.049 153.311 328.499C147.766 335.932 138.731 343.189 138 353L134.222 360.134L124 378C118.722 382.324 117.096 392.833 114.255 399C105.729 417.506 94.639 437.066 94 458C89.3652 459.81 86.7248 470.273 84.8537 475.06C77.7477 493.242 74.7681 511.699 73 531L70 531C69.3558 535.727 66.7888 541.557 71 545C69.3192 550.371 64.0207 562.189 68 567L68 568L68 569C66.1871 570.556 66.1871 571.444 68 573L68 574C63.8956 577.282 65.0001 583.176 65 588C64.9999 600.269 64.693 611.993 64.9862 624C65.7803 656.511 65.7453 688.642 70.4461 721C72.2318 733.292 74.6013 747.063 77.5455 759.115C78.6595 763.675 81.4094 767.223 82 772L83 772L83 765L84 765C84.0311 774.961 81.9549 783.202 88 792L91 801L91 802L95 820L96 820L96 817L97 817L105 842L108 841L113 863L115 861L119 878L123 879L132.649 897L161 945L167.25 956L177.111 965.611L189 979C188.438 981.476 188.551 982.711 191 981C192.925 986.34 195.695 991.593 201 994L200 996C209.847 1000.89 213.171 1010.07 220.688 1017.2C233.767 1029.6 248.886 1040.16 261.811 1052.76C268.088 1058.89 279.208 1072.09 288 1073L307.793 1086.79L349 1112.59L372 1125L376 1124C375.9 1128.18 383.316 1130.35 387 1130.94C399.947 1133.05 410.508 1142.21 423 1145.36C474.759 1158.42 523.988 1178 578 1178L578 1177L576 1177L576 1176C591.999 1183 614.757 1179.87 632 1179.06C659.814 1177.76 686.915 1177.02 714.305 1171.46C732.136 1167.84 750.309 1163.83 768 1159.27C776.15 1157.17 784.715 1152.6 793 1152L792 1150C807.185 1149.99 827.27 1140.73 841 1134.08C845.608 1131.85 852.044 1131.3 855 1127C859.258 1127.25 862.365 1125.4 866 1123.25C873.545 1118.79 890.797 1114.48 894 1106C906.437 1103.6 917.365 1093.97 927.059 1086.7C932.212 1082.83 938.721 1081.84 943.989 1078.13C953.448 1071.46 961.217 1062.72 971 1056L970 1054C989.418 1049 996.536 1025.56 1014 1019L1034.95 995.37L1048 983L1047 980C1053.62 976.302 1056.04 968.989 1060.79 963.322C1072.37 949.518 1084.85 936.856 1088 919L1090 920C1102.26 903.637 1110.92 886.738 1119.3 868.196C1122.53 861.044 1128.04 852.971 1128 845C1135.53 840.812 1139.3 824.793 1143 817L1140 817L1140 816C1150.54 801.227 1151.46 779.617 1158 763L1155 763C1163.43 756.574 1160.77 747.317 1162.15 738C1164.98 718.78 1168.24 700.388 1170.19 681C1173.98 643.233 1172.28 605.723 1168.37 568.01C1168.01 564.503 1169.81 561.418 1169.59 557.951C1168.43 538.861 1163.75 517.049 1159.24 498.305C1156.79 488.088 1151.08 478.835 1147.68 469C1141.53 451.216 1136.81 432.874 1131 415L1130 415L1130 419L1129 419C1126.4 400.61 1118.31 383.61 1108.31 367.973C1105.13 363.011 1102.69 354.344 1097 352C1096.12 339.182 1081.31 317.74 1070 312C1070.55 304.475 1056.45 284.561 1049 283C1048.65 273.634 1040.99 271.92 1035.68 265.426C1030.37 258.935 1027.24 250.253 1021.43 244.11C1012.33 234.495 1001 228.537 992.668 217.912C987.926 211.868 976.274 199.131 968 201C959.768 180.992 931.184 177.577 921 160C914.118 158.852 901.735 154.066 898 148L895 150C888.089 138.561 880.693 141.315 871.147 134.847C851.874 121.788 830.395 114.027 808.196 106.502C799.86 103.676 788.87 98.8304 780 100C775.652 94.5333 764.585 93.3475 758 91.9017C742.921 88.5909 728.149 84.3993 713 81.4537C704.382 79.778 697.654 76.2941 689 79C684.931 74.2635 674.877 76.3263 669 75.571C648.304 72.9116 627.509 75.6796 607 74.8582C584.845 73.9708 559.789 73.2714 538 77.3917C521.756 80.4635 505.866 86.0804 489.941 90.2609C480.166 92.8268 469.748 92.7622 460 95.5845C429.214 104.498 398.228 118.322 369.974 132.72C361.935 136.817 353.151 139.45 345 144.013C339.361 147.17 334.652 152.158 328.973 155.019C322.509 158.277 309.62 163.333 308 171z"/>
<path style="fill:#13205f; stroke:none;" d="M897 73L898 74L897 73z"/>
<path style="fill:#12279f; stroke:none;" d="M331.667 74.3334L332.333 74.6666L331.667 74.3334M899 74L900 75L899 74M329.667 75.3334L330.333 75.6666L329.667 75.3334M901 75L902 76L901 75M328 76L329 77L328 76M903 76L904 77L903 76M326.667 77.3334L327.333 77.6666L326.667 77.3334M324 78L325 79L324 78z"/>
<path style="fill:#13205f; stroke:none;" d="M322 79L323 80L322 79z"/>
<path style="fill:#12279f; stroke:none;" d="M323 79L324 80L323 79M908 79L909 80L908 79M313 84L313 85L322 80L313 84M910 80L911 81L910 80M915 83L916 84L915 83M917 84L918 85L917 84M312 85L311 87L313 87L312 85M919 85L920 86L919 85M920 86L921 87L920 86z"/>
<path style="fill:#13205f; stroke:none;" d="M308 87L309 88L308 87z"/>
<path style="fill:#12279f; stroke:none;" d="M309 87L310 88L309 87M306.667 88.3334L307.333 88.6666L306.667 88.3334M924 88L925 89L924 88M305 89L306 90L305 89M926 89L927 90L926 89M303.667 90.3334L304.333 90.6666L303.667 90.3334M301 91L302 92L301 91M299.667 92.3334L300.333 92.6666L299.667 92.3334M931 92L932 93L931 92M298 93L299 94L298 93z"/>
<path style="fill:#13205f; stroke:none;" d="M296 94L297 95L296 94z"/>
<path style="fill:#12279f; stroke:none;" d="M297 94L298 95L297 94M934 94L935 95L934 94M295.667 95.3334L296.333 95.6666L295.667 95.3334M293 96L294 97L293 96M291 97L293 99L293 97L291 97M939 97L940 98L939 97M266 114L266 115C272.901 113.041 285.111 106.061 289 100L292 100C284.778 97.3171 271.953 110.221 266 114M940 98L941 99L940 98M942 99L943 100L942 99z"/>
<path style="fill:#13205f; stroke:none;" d="M285 101L286 102L285 101z"/>
<path style="fill:#12279f; stroke:none;" d="M945 101L946 102L945 101M950 104L951 105L950 104M951 105L952 106L951 105M953 106L954 107L953 106M956 108L957 109L956 108M959 110L960 111L959 110z"/>
<path style="fill:#13205f; stroke:none;" d="M267 113L268 114L267 113z"/>
<path style="fill:#12279f; stroke:none;" d="M963 113L964 114L963 113M264.667 115.333L265.333 115.667L264.667 115.333z"/>
<path style="fill:#13205f; stroke:none;" d="M966 115L967 116L966 115z"/>
<path style="fill:#12279f; stroke:none;" d="M263 116L264 117L263 116M262 117L249 128C253.479 126.013 261.619 122.411 262 117M970 118L971 119L970 118z"/>
<path style="fill:#13205f; stroke:none;" d="M257 120L258 121L257 120z"/>
<path style="fill:#12279f; stroke:none;" d="M973 120L974 121L973 120M976 122L977 123L976 122z"/>
<path style="fill:#13205f; stroke:none;" d="M250 125L251 126L250 125z"/>
<path style="fill:#12279f; stroke:none;" d="M980 125L981 126L980 125M243 132L248 128L243 132M984 128L985 129L984 128M985 129L986 130L985 129z"/>
<path style="fill:#13205f; stroke:none;" d="M241 132L240 134L241 132z"/>
<path style="fill:#12279f; stroke:none;" d="M989 132L990 133L989 132M241 133L242 134L241 133M236 137L237 138L241 134L236 137z"/>
<path style="fill:#13205f; stroke:none;" d="M993 135L994 136L993 135z"/>
<path style="fill:#12279f; stroke:none;" d="M235 137L236 138L235 137M234 138C55.035 276.628 -23.4504 511.474 15.6238 731C22.8432 771.56 35.354 813.2 51.7589 850.941C57.4404 864.011 62.9877 877.514 69.8727 890C75.0985 899.477 83.2476 910.604 86 921C94.7279 930.772 100.237 944.106 107.541 955C122.732 977.657 139.75 999.338 157.758 1019.8C223.72 1094.76 310.706 1155.37 405 1188.77C638.593 1271.53 902.471 1208.54 1069.8 1024C1108.89 980.892 1141.51 931.403 1166.73 879C1198.28 813.451 1218.81 739.66 1223.89 667C1226.37 631.377 1224 596.55 1224 561L1222 561C1222 623.637 1222.75 684.151 1210.31 746C1187.15 861.215 1122.25 970.426 1038.45 1051.56C883.047 1202.02 646.698 1250.03 441 1191.47C313.544 1155.18 193.39 1067.65 119.284 958C-3.75198 775.954 -22.4921 526.097 80.3438 330C108.421 276.46 143.971 229.102 185.315 185.115C196.266 173.464 208.548 162.045 220.83 151.932C224.564 148.858 234.033 143.184 234 138z"/>
<path style="fill:#13205f; stroke:none;" d="M232 139L233 140L232 139z"/>
<path style="fill:#12279f; stroke:none;" d="M998 139L999 140L998 139M1002 142L1003 143L1002 142M1003 143L1004 144L1003 143z"/>
<path style="fill:#13205f; stroke:none;" d="M226 144L227 145L226 144z"/>
<path style="fill:#12279f; stroke:none;" d="M1009 148L1010 149L1009 148M1010 149L1011 150L1010 149M1016 154L1017 155L1016 154M1017 155L1018 156L1017 155z"/>
<path style="fill:#0f33ec; stroke:none;" d="M210 158L211 159L210 158z"/>
<path style="fill:#12279f; stroke:none;" d="M1023 160L1024 161L1023 160z"/>
<path style="fill:#13205f; stroke:none;" d="M206 161L207 162L206 161z"/>
<path style="fill:#12279f; stroke:none;" d="M1024 161L1025 162L1024 161M1040 176L1041 177L1040 176M1041 177L1042 178L1041 177M1042 178L1043 179L1042 178M1043 179L1044 180L1043 179z"/>
<path style="fill:#13205f; stroke:none;" d="M186 180L187 181L186 180z"/>
<path style="fill:#12279f; stroke:none;" d="M1044 180L1045 181L1044 180z"/>
<path style="fill:#13205f; stroke:none;" d="M185 181L186 182L185 181z"/>
<path style="fill:#12279f; stroke:none;" d="M1045 181L1046 182L1045 181M1046 182L1047 183L1046 182M1047 183L1048 184L1047 183M1048 184L1049 185L1048 184z"/>
<path style="fill:#13205f; stroke:none;" d="M181 185L182 186L181 185z"/>
<path style="fill:#12279f; stroke:none;" d="M1049 185L1050 186L1049 185z"/>
<path style="fill:#13205f; stroke:none;" d="M180 186L181 187L180 186z"/>
<path style="fill:#12279f; stroke:none;" d="M1050 186L1051 187L1050 186z"/>
<path style="fill:#13205f; stroke:none;" d="M1051 187L1052 188L1051 187z"/>
<path style="fill:#12279f; stroke:none;" d="M1052 188L1053 189L1052 188M1061 198L1062 199L1061 198M1066 203L1067 204L1066 203M1067 204L1068 205L1067 204z"/>
<path style="fill:#13205f; stroke:none;" d="M162 205L163 206L162 205z"/>
<path style="fill:#12279f; stroke:none;" d="M1068 205L1069 206L1068 205M1069 206L1070 207L1069 206M1074 212L1075 213L1074 212M1075 213L1076 214L1075 213M1078 217L1079 218L1078 217M1080 219L1081 220L1080 219z"/>
<path style="fill:#13205f; stroke:none;" d="M149 220L150 221L149 220z"/>
<path style="fill:#12279f; stroke:none;" d="M1081 220L1082 221L1081 220M1087 227L1088 228L1087 227z"/>
<path style="fill:#13205f; stroke:none;" d="M139 232L140 233L139 232z"/>
<path style="fill:#12279f; stroke:none;" d="M1091 232L1092 233L1091 232M1094 236L1095 237L1094 236z"/>
<path style="fill:#13205f; stroke:none;" d="M132 241L133 242L132 241z"/>
<path style="fill:#12279f; stroke:none;" d="M1098 241L1099 242L1098 241M1101 245L1102 246L1101 245M1102 246L1103 247L1102 246z"/>
<path style="fill:#13205f; stroke:none;" d="M125 250L126 251L125 250z"/>
<path style="fill:#5e1210; stroke:none;" d="M448 251L448 252L451 252L451 403L451 441C451 445.55 452.3 452.821 449.155 456.588C446.551 459.708 441.614 458.998 438 459L409 459L290 459L258 459C254.173 459 248.613 459.904 245.845 456.588C240.73 450.461 244 432.662 244 425L244 339L244 274C244 268.888 241.617 255.564 246.412 252.285C250.215 249.684 257.617 250.944 262 251.01C274.692 251.203 287.286 252 300 252C349.02 252 398.049 251 447 251C432.496 245.58 409.291 250.208 394 250.941C360.589 252.542 325.367 251.545 292 250.059C280.045 249.526 267.967 249.996 256 250C251.653 250.002 245.914 249.25 243.035 253.298C239.348 258.481 241.152 267.116 241.453 273C242.015 284.006 240.475 294.944 241.695 306C245.623 341.593 241.466 379.301 241.059 415C240.923 426.992 240.425 439.043 240.315 451C240.277 455.199 241.917 459.467 246.041 461.155C250.171 462.844 254.746 461.133 259 461.118C269.021 461.084 278.961 462 289 462C325.472 462 363.905 457.876 400 461.196C412.542 462.35 425.438 462.518 438 461.295C442.009 460.905 448.19 462.116 451.047 458.588C453.704 455.305 452.999 449.926 453 446L453 416C453 376.334 453.12 336.666 452.999 297C452.965 285.736 453.042 274.456 452.79 263.19C452.685 258.495 452.851 252.921 448 251z"/>
<path style="fill:#13205f; stroke:none;" d="M515.412 251.15C510.341 254.617 512.135 269.56 512.135 275C512.135 297.111 514.829 319.985 512.804 342C510.228 370.004 512 398.865 512 427C512 435.912 508.52 451.206 514.167 458.783C517.143 462.778 522.698 461.791 527.125 461.938C538.396 462.31 549.723 462 561 462L677 462C686.971 462 697.047 461.477 707 461.764C710.983 461.879 716.974 463.148 720.482 460.715C727.048 456.161 723.008 441.552 723 435L723 357C723 331.615 724 306.358 724 281C724 273.745 726.583 258.532 722.09 252.412C719.596 249.016 713.645 250 710 250L675 250L559 250L528 250C524.351 250 518.593 248.975 515.412 251.15z"/>
<path style="fill:#5e1210; stroke:none;" d="M982 251L982 252C988.389 261.347 984 284.754 984 296L984 411L984 444C984 448.107 984.962 454.249 981.479 457.283C978.226 460.116 971.979 459 968 459L934 459L826 459C813.757 459 792.349 463.161 781.156 458.155C776.433 456.043 777.006 450.312 777 446L777 413L777 293L777 264C777.002 260.386 776.292 255.449 779.412 252.845C783.408 249.509 792.199 250.777 797 251.305C808.402 252.56 820.487 252 832 252C881.693 252 931.375 251 981 251C967.224 245.852 945.506 250.245 931 250.941C913.046 251.801 895.015 250 877 250C860.731 250 844.207 251.897 828 250.405C815.785 249.281 803.264 250 791 250C786.553 250 780.04 248.916 776.658 252.521C769.555 260.092 775 285.096 775 295C775 335 774.136 375.075 774.001 415C773.962 426.33 773.898 437.67 774.003 449C774.045 453.507 774.336 459.084 779.146 461.152C782.865 462.751 787.145 461.119 791 461.119C800.231 461.119 809.773 461.148 818.999 461.309C857.974 461.988 896.986 462 936 462C947.728 462 959.322 461.373 971 461.027C974.752 460.916 981.237 462.251 984.155 459.283C986.789 456.604 985.999 451.405 986 448L986 418L986 297L986 264C985.998 258.925 986.633 254.037 982 251z"/>
<path style="fill:#12279f; stroke:none;" d="M1105 250L1106 251L1105 250z"/>
<path style="fill:#794649; stroke:none;" d="M244 260L245 260C245.594 248.474 260.558 252 269 252C259.931 248.611 244.1 248.316 244 260M271 251L271 252L282 252L271 251M416 251L416 252L426 252L416 251M427 251L427 252C432.361 252 444.171 249.802 448.283 253.845C451.207 256.72 450 263.293 450 267L450 302L451 302L451 252L427 251z"/>
<path style="fill:#12279f; stroke:none;" d="M518 251L518 252L530 252L518 251M535 251L535 252L538 252L535 251M710 251L710 252L719 252L710 251z"/>
<path style="fill:#794649; stroke:none;" d="M777 259L778 259C780.763 249.509 790.938 252 799 252C791.348 249.14 777.521 248.89 777 259M807 251L807 252L811 252L807 251M813 251L813 252L817 252L813 251M944 251L944 252L951 252L944 251M954 251L954 252C960.39 252 976.466 249.11 981.283 253.845C984.745 257.248 983 266.559 983 271L983 318C988.079 304.409 984 282.536 984 268C984 264.131 985.674 255.016 982.283 252.285C976.979 248.013 960.635 251 954 251z"/>
<path style="fill:#a55859; stroke:none;" d="M245 303L246 303L246 269L248.603 255.717L263 254L300 254L448 254L449 394L450 360L450 287L450 262L448.283 253.285L437 252L408 252L293 252.541L259 252L246.717 253.285L245 266L245 303z"/>
<path style="fill:#794649; stroke:none;" d="M290 252L290 253L293 253L290 252M294 252L294 253L398 253L365 252L294 252z"/>
<path style="fill:#576ca5; stroke:none;" d="M516 320L517 320L517.087 272L519.717 254.717L531 253L560 253L675 253L706 253L718.224 254.717L719.056 266.115L719.01 295L720 412L721 412L721 252L567 252L529 252L516.344 253.717L516 271L516 320z"/>
<path style="fill:#a55859; stroke:none;" d="M779 309L780 309L779.115 271L781.707 255.717L796 254L833 254L981 254L982 308L982 401C985.659 391.208 983 376.436 983 366L983 288L983 263C982.999 260.16 983.812 255.322 981.283 253.285C978.385 250.951 972.459 252 969 252C959.004 252 948.993 251.848 939 252.112C902.01 253.088 862.938 256.324 826.059 252.488C814.822 251.319 803.284 252 792 252C788.538 252 782.612 250.929 779.953 253.717C776.687 257.143 778 264.694 778 269C778 282.332 779 295.625 779 309z"/>
<path style="fill:#794649; stroke:none;" d="M822 252L823 253L822 252M826 252L826 253L932 253L899 252L826 252M936.667 252.333L937.333 252.667L936.667 252.333M515 253L516 254L515 253z"/>
<path style="fill:#6d95fa; stroke:none;" d="M520 279C525.127 279.698 528.93 284.564 533.572 286.832C539.054 289.51 548.177 291.475 554.196 292.46C562.372 293.798 570.833 292.449 579 293.203C607.106 295.798 635.899 297.976 664 292.977C675.212 290.982 701.741 293.415 707 281L718 280C719.22 275.516 722.248 256.159 717.584 253.717C714.042 251.863 707.887 253 704 253L671 253L563 253L533 253C529.349 253 523.752 251.986 520.412 253.717C514.539 256.763 518.839 273.98 520 279z"/>
<path style="fill:#794649; stroke:none;" d="M721 253L721 256L722 256L721 253z"/>
<path style="fill:#12279f; stroke:none;" d="M1107 253L1108 254L1107 253z"/>
<path style="fill:#f58183; stroke:none;" d="M247 255L247 257C257.935 258.769 272.532 264.489 278 276L321 280.804L364 281L364 279L354 279L354 278C358.22 277.051 362.199 276.214 365 280C371.573 277.337 377.21 279.71 384 279.242C399.197 278.195 408.58 276.109 421.059 267.771C424.8 265.272 436.319 265.092 433 259L436 258C438.747 260.331 445.954 256.6 448 254L312 254C291.972 254 266.308 249.747 247 255z"/>
<path style="fill:#84a7f7; stroke:none;" d="M543 257L543 258L577.196 270.635L603 270L602 273C608.631 273.018 626.208 277.94 629 270L645 270L645 273C653.933 272.238 661.053 267.589 670 271L692 256C682.027 254.381 672.025 255.563 662 254.886C634.45 253.025 604.479 251.662 577 254.695C565.892 255.921 553.529 252.713 543 257z"/>
<path style="fill:#f58183; stroke:none;" d="M781 258C791.681 254.728 795.564 265.259 806 267L810 276C822.617 276 834.637 279.438 847 279.927C877.851 281.147 908.207 280.007 939 276.799C948.31 275.83 959.005 268 966.384 262.875C971.964 259 973.326 255.391 981 257C980.018 252.417 973.88 254 970 254L938 254L817 254L789 254C785.181 254 779.982 252.999 781 258z"/>
<path style="fill:#fb5857; stroke:none;" d="M247 257C242.788 272.482 245.778 293.118 246.885 309C247.329 315.36 246.312 321.797 248 328L249 328L252 311C258.873 313.568 284.901 310.093 284 320L317 320.059L373 320.026L405 317C405.796 320.716 408.637 320 412 320L412 317L420 318C422.017 314.712 434.712 308.745 437.881 312.614C440.118 315.345 439.823 321.619 440 325L442 325L445 320L445.263 343L446 385L448 385L448.003 318L448 256L433 259C434.884 265.291 424.02 265.099 420.115 267.771C408.68 275.592 400.092 278.056 386 278.973C378.811 279.441 371.665 276.687 365 280C364.003 275.347 357.567 276.696 354 278L354 279L364 279L364 281L322 280.804L278 276C274.327 264.217 257.3 257.684 247 257z"/>
<path style="fill:#12279f; stroke:none;" d="M721 256L721 403C721 415.731 720.802 428.317 720.125 441C719.882 445.55 722.104 451.527 718.964 455.479C716.47 458.618 711.55 457.995 708 458L680 458L562 458L530 458C526.037 457.998 520.561 458.744 518.15 454.784C515.504 450.44 516.018 441.961 516.001 437C515.958 424.334 516 411.666 516 399L516 257L515 257L515 403L515 441L516.285 456.588L529 459L567 459.292L678 459L721 459C726.959 413.354 722 364.054 722 318L722 276C722 269.697 723.223 261.949 721 256z"/>
<path style="fill:#fb5857; stroke:none;" d="M780 257L780 327L781 327L784 309L786 309L787 310L787 318L791 314L793 314L794 318L798 318L798 314C803.216 314.004 807.996 313.398 810 319L805 319L805 320C818.254 322.406 831.681 319.793 845 320.01C872.396 320.458 899.611 321.317 927 319.962C941.111 319.264 958.193 309.46 972 315L973 315C980.43 310.846 979.995 324.71 980 329L980 385L982 385L982 289C982 282.808 985.33 261.32 980.283 257.286C974.827 252.925 969.953 259.409 966.384 262.317C964.03 264.236 960.767 264.221 958.201 265.782C951.715 269.728 948.259 275.112 940 276.529C909.821 281.706 877.36 281.565 847 279.848C834.592 279.146 822.662 276 810 276L806 267L789.717 256.872L780 257z"/>
<path style="fill:#13205f; stroke:none;" d="M120 257L121 258L120 257z"/>
<path style="fill:#12279f; stroke:none;" d="M1110 257L1111 258L1110 257z"/>
<path style="fill:#a31815; stroke:none;" d="M777 259L777 403L777 441C777 445.361 775.644 452.714 778.285 456.479C780.533 459.684 785.609 458.995 789 459L818 459L939 459L971 459C974.554 459 980.375 460.01 982.715 456.588C987.899 449.007 984 428.064 984 419L984 318L983 318C983 351.011 982 384.057 982 417C982 425.925 985.931 447.157 980.85 454.588C978.506 458.015 972.555 457 969 457L938 457L820 457L792 457C788.168 456.994 783.466 457.447 781.062 453.784C778.935 450.542 779.821 445.693 779.423 442C778.077 429.517 779 416.55 779 404L779 306C779 292.224 781.814 271.882 777 259M244 260L244 456C247.71 453.136 246.037 448.286 246.003 444C245.914 432.668 246 421.332 246 410C246 373.129 247.678 335.757 245.115 299C244.28 287.035 248.206 271.255 244 260z"/>
<path style="fill:#12279f; stroke:none;" d="M1112 260L1113 261L1112 260z"/>
<path style="fill:#13205f; stroke:none;" d="M115 264L116 265L115 264z"/>
<path style="fill:#12279f; stroke:none;" d="M1115 264L1116 265L1115 264z"/>
<path style="fill:#416bfd; stroke:none;" d="M517 267L517 392L517.196 425L519.122 436L539 430C542.136 425.18 546.891 425.797 552 424.64C564.211 421.875 575.386 423 588 423C617.452 423 649.637 417.911 678.059 424.335C688.738 426.749 703.724 425.51 711.401 435.143C714.799 439.406 716.359 445.88 718 451L715 452L715 456L720 455L720 397L719 279L707 281C699.583 292.916 677.184 290.545 665 292.475C636.65 296.965 608.382 296.013 580 293.2C571.49 292.356 562.66 293.78 554.196 292.089C548.192 290.888 539.926 289.494 534.433 286.832C529.536 284.458 525.47 279.348 520 279L517 267z"/>
<path style="fill:#12279f; stroke:none;" d="M1117 267L1118 268L1117 267M1119 270L1120 271L1119 270z"/>
<path style="fill:#13205f; stroke:none;" d="M108 274L109 275L108 274z"/>
<path style="fill:#12279f; stroke:none;" d="M1122 274L1123 275L1122 274z"/>
<path style="fill:#13205f; stroke:none;" d="M106 277L107 278L106 277z"/>
<path style="fill:#fb5857; stroke:none;" d="M342 277L343 280L349 279L349 277L342 277M878 278L882 280C881.386 277.149 880.697 277.146 878 278z"/>
<path style="fill:#12279f; stroke:none;" d="M1124 277L1125 278L1124 277M1127 282L1128 283L1127 282z"/>
<path style="fill:#13205f; stroke:none;" d="M102 284L103 285L102 284z"/>
<path style="fill:#12279f; stroke:none;" d="M1129 285L1130 286L1129 285z"/>
<path style="fill:#13205f; stroke:none;" d="M99 288L100 289L99 288z"/>
<path style="fill:#12279f; stroke:none;" d="M1131 288L1132 289L1131 288M1134 293L1135 294L1134 293M1135 295L1136 296L1135 295z"/>
<path style="fill:#13205f; stroke:none;" d="M94 296L95 297L94 296z"/>
<path style="fill:#12279f; stroke:none;" d="M1136 296L1137 297L1136 296z"/>
<path style="fill:#13205f; stroke:none;" d="M93 298L94 299L93 298z"/>
<path style="fill:#12279f; stroke:none;" d="M1139 301L1140 302L1139 301z"/>
<path style="fill:#a31815; stroke:none;" d="M450.333 302.667L450.667 303.333L450.333 302.667z"/>
<path style="fill:#794649; stroke:none;" d="M450 304L451 305L450 304z"/>
<path style="fill:#fa3132; stroke:none;" d="M246 305L246 416L246.001 444L248.035 455.155L259 457L288 457L402 456.196L435 457L447.283 455.283L449 436L449 383L448 383L446 385C443.767 364.455 442.906 340.513 445 320L442 325L440 325C439.902 321.56 440.324 314.505 437.881 311.814C434.914 308.547 421.405 314.414 420 318L418 316L412 317L412 320L405 317C377.763 323.708 346.052 321.404 318 320.059C306.619 319.514 295.24 322.041 284 320C286.919 310.983 258.395 312.575 252 311L249 328L248 328L246 305z"/>
<path style="fill:#a31815; stroke:none;" d="M450 305L450 308L451 308L450 305z"/>
<path style="fill:#13205f; stroke:none;" d="M88 306L89 307L88 306z"/>
<path style="fill:#12279f; stroke:none;" d="M1142 306L1143 307L1142 306z"/>
<path style="fill:#fa3132; stroke:none;" d="M789 307L793 312L789 307z"/>
<path style="fill:#794649; stroke:none;" d="M450 308L451 309L450 308z"/>
<path style="fill:#12279f; stroke:none;" d="M1143 308L1144 309L1143 308z"/>
<path style="fill:#a31815; stroke:none;" d="M450 309L449 416L449 443L447.283 454.588L434 457L398 456.003L295 457L247 456C248.208 461.635 265.867 459 271 459L348 459L421 459C427.604 459 443.208 461.905 448.75 458.278C451.634 456.39 451 451.945 451 449L451 424L451 341C451 332.658 454.085 316.089 450 309z"/>
<path style="fill:#fa3132; stroke:none;" d="M779 309L779 326L780 326L779 309M784 309C778.259 323.26 779 339.848 779 355L779 420C779 428.362 779.215 436.656 779.509 445C779.638 448.647 778.793 453.486 782.385 455.85C788.865 460.115 805.372 457 813 457C839.69 457 866.379 456.054 893 456.054C914.253 456.054 935.673 457 957 457C962.522 457 975.83 459.437 980.283 455.85C985.148 451.932 982 431.941 982 426C982 396.505 980 367.519 980 338C980 334.496 981.048 307.252 973 315L972 315C960.675 308.156 939.181 318.867 927 319.91C900.477 322.181 873.582 320.815 847 320.027C832.925 319.61 819.038 321.831 805 320L805 319L810 319C808.709 312.912 803.174 314.001 798 314L798 318L794 318L793 314L791 314L787 318L787 310L786 309L784 309M448 310L448 382L449 382L449 333L448 310z"/>
<path style="fill:#12279f; stroke:none;" d="M1144 310L1145 311L1144 310z"/>
<path style="fill:#fa3132; stroke:none;" d="M443 311L443 319L445 319L443 311z"/>
<path style="fill:#12279f; stroke:none;" d="M1145 312L1146 313L1145 312z"/>
<path style="fill:#13205f; stroke:none;" d="M84 313L85 314L84 313z"/>
<path style="fill:#fa3132; stroke:none;" d="M811 315L811 319L816 319L811 315z"/>
<path style="fill:#12279f; stroke:none;" d="M1147 315L1148 316L1147 315z"/>
<path style="fill:#fb5857; stroke:none;" d="M255 317L255 319L257 319L257 317L255 317M267 318L274 320L274 319L267 318M279 319L280 320L279 319M957 319L957 320L960 320L957 319z"/>
<path style="fill:#13205f; stroke:none;" d="M80 320L81 321L80 320z"/>
<path style="fill:#576ca5; stroke:none;" d="M516 322L516 326L517 326L516 322z"/>
<path style="fill:#12279f; stroke:none;" d="M1151 322L1152 323L1151 322M1152 324L1153 325L1152 324z"/>
<path style="fill:#0f33ec; stroke:none;" d="M516 326L516 419C516 428.341 512.656 447.574 518.15 455.588C520.498 459.014 526.442 458 530 458L562 458L680 458C688.895 458 714.201 462.251 720 455L715 456L715 452L718 451C713.488 429.121 699.231 427.921 680.004 424.556C649.952 419.298 618.016 423 587 423C574.245 423 563.346 421.997 551 424.705C546.328 425.73 540.859 424.695 539 430C534.252 429.132 521.608 437.804 519.385 435.861C514.471 431.566 517 413.023 517 407L517 352C517 344.035 518.802 333.498 516 326z"/>
<path style="fill:#a55859; stroke:none;" d="M779 326L780 327L779 326z"/>
<path style="fill:#12279f; stroke:none;" d="M1155 330L1156 331L1155 330M1156 332L1157 333L1156 332M1157 334L1158 335L1157 334z"/>
<path style="fill:#13205f; stroke:none;" d="M69 341L70 342L69 341z"/>
<path style="fill:#fb5857; stroke:none;" d="M247 341L247 376L248 376L247 341z"/>
<path style="fill:#13205f; stroke:none;" d="M68 343L69 344L68 343z"/>
<path style="fill:#fb5857; stroke:none;" d="M780 343L780 350L781 350L780 343z"/>
<path style="fill:#13205f; stroke:none;" d="M67 345L68 346L67 345M66 347L67 348L66 347M65.3333 349.667L65.6667 350.333L65.3333 349.667M64 351L65 352L64 351M63 353L64 354L63 353M61 358L62 359L61 358z"/>
<path style="fill:#12279f; stroke:none;" d="M1169 358L1170 359L1169 358M1170 360L1171 361L1170 360z"/>
<path style="fill:#13205f; stroke:none;" d="M59 362L60 363L59 362z"/>
<path style="fill:#12279f; stroke:none;" d="M1171 363L1172 364L1171 363M1173 367L1174 368L1173 367M1174 369L1175 370L1174 369z"/>
<path style="fill:#13205f; stroke:none;" d="M55 371L56 372L55 371z"/>
<path style="fill:#12279f; stroke:none;" d="M1177 376L1178 377L1177 376M1178 378L1179 379L1178 378z"/>
<path style="fill:#13205f; stroke:none;" d="M51 380L52 381L51 380z"/>
<path style="fill:#12279f; stroke:none;" d="M1179 381L1180 382L1179 381M1180.33 383.667L1180.67 384.333L1180.33 383.667z"/>
<path style="fill:#13205f; stroke:none;" d="M49 385L50 386L49 385M1182 388L1183 389L1182 388z"/>
<path style="fill:#fb5857; stroke:none;" d="M981 389L981 392L982 392L981 389z"/>
<path style="fill:#12279f; stroke:none;" d="M1182 389L1183 390L1182 389M1183 391L1184 392L1183 391z"/>
<path style="fill:#13205f; stroke:none;" d="M45 396L46 397L45 396z"/>
<path style="fill:#12279f; stroke:none;" d="M1185 396L1186 397L1185 396z"/>
<path style="fill:#13205f; stroke:none;" d="M44 398L45 399L44 398z"/>
<path style="fill:#12279f; stroke:none;" d="M1186 399L1187 400L1186 399z"/>
<path style="fill:#13205f; stroke:none;" d="M1187 401L1188 402L1187 401z"/>
<path style="fill:#12279f; stroke:none;" d="M1188 404L1189 405L1188 404M1189 407L1190 408L1189 407z"/>
<path style="fill:#13205f; stroke:none;" d="M40 409L41 410L40 409z"/>
<path style="fill:#12279f; stroke:none;" d="M1190 409L1191 410L1190 409z"/>
<path style="fill:#13205f; stroke:none;" d="M39 412L40 413L39 412z"/>
<path style="fill:#0f33ec; stroke:none;" d="M720 412L720 438L721 438L720 412z"/>
<path style="fill:#12279f; stroke:none;" d="M1191 412L1192 413L1191 412M1192 415L1193 416L1192 415M1193.33 418.667L1193.67 419.333L1193.33 418.667M1194 421L1195 422L1194 421z"/>
<path style="fill:#13205f; stroke:none;" d="M35 424L36 425L35 424z"/>
<path style="fill:#12279f; stroke:none;" d="M1195.33 424.667L1195.67 425.333L1195.33 424.667z"/>
<path style="fill:#13205f; stroke:none;" d="M34 427L35 428L34 427z"/>
<path style="fill:#12279f; stroke:none;" d="M1196.33 427.667L1196.67 428.333L1196.33 427.667M1197 430L1198 431L1197 430M1198 434L1199 435L1198 434z"/>
<path style="fill:#13205f; stroke:none;" d="M31 437L32 438L31 437z"/>
<path style="fill:#12279f; stroke:none;" d="M1199 437L1200 438L1199 437z"/>
<path style="fill:#13205f; stroke:none;" d="M30 439L31 440L30 439z"/>
<path style="fill:#0f33ec; stroke:none;" d="M719 440L719 454L720 454L719 440z"/>
<path style="fill:#12279f; stroke:none;" d="M1200 440L1201 441L1200 440z"/>
<path style="fill:#416bfd; stroke:none;" d="M520 443L519 447L520 443z"/>
<path style="fill:#13205f; stroke:none;" d="M1202 447L1203 448L1202 447z"/>
<path style="fill:#12279f; stroke:none;" d="M1202 448L1203 449L1202 448z"/>
<path style="fill:#13205f; stroke:none;" d="M27 450L28 451L27 450z"/>
<path style="fill:#416bfd; stroke:none;" d="M519 451L520 452L519 451z"/>
<path style="fill:#12279f; stroke:none;" d="M1203.33 451.667L1203.67 452.333L1203.33 451.667z"/>
<path style="fill:#13205f; stroke:none;" d="M26.3333 454.667L26.6667 455.333L26.3333 454.667z"/>
<path style="fill:#416bfd; stroke:none;" d="M518 456L522 455L518 456z"/>
<path style="fill:#a55859; stroke:none;" d="M246 455L247 456L246 455z"/>
<path style="fill:#794649; stroke:none;" d="M245 456L247 459L247 456L245 456z"/>
<path style="fill:#12279f; stroke:none;" d="M1205.33 458.667L1205.67 459.333L1205.33 458.667M1206.33 462.667L1206.67 463.333L1206.33 462.667M1207.33 465.667L1207.67 466.333L1207.33 465.667M1208 470L1209 471L1208 470M1209.33 474.667L1209.67 475.333L1209.33 474.667z"/>
<path style="fill:#13205f; stroke:none;" d="M20 479L21 480L20 479z"/>
<path style="fill:#12279f; stroke:none;" d="M1210 480L1211 481L1210 480M1211 483L1211 486L1212 486L1211 483z"/>
<path style="fill:#13205f; stroke:none;" d="M18 487L19 488L18 487z"/>
<path style="fill:#12279f; stroke:none;" d="M1211 487L1212 488L1211 487M1212 488L1212 491L1213 491L1212 488z"/>
<path style="fill:#13205f; stroke:none;" d="M17 492L18 493L17 492z"/>
<path style="fill:#12279f; stroke:none;" d="M1213 492L1213 497L1214 497L1213 492z"/>
<path style="fill:#13205f; stroke:none;" d="M16.3333 495.667L16.6667 496.333L16.3333 495.667z"/>
<path style="fill:#12279f; stroke:none;" d="M1214 497L1214 501L1215 501L1214 497z"/>
<path style="fill:#13205f; stroke:none;" d="M444.996 503.752C395.069 502.792 344.951 504 295 504L258 504C253.981 504 246.871 502.682 243.69 505.717C240.75 508.523 241.107 513.999 241.131 517.695C241.198 527.848 241.001 537.837 241 548C240.997 588.118 244.854 630.234 241.196 670C240.141 681.479 240.892 693.474 241.003 705C241.048 709.619 241.49 715.084 247.031 716.047C264.504 719.082 285.868 716.083 303.695 715.873C336.783 715.483 369.912 716.668 403 715.945C414.781 715.687 426.65 715.737 438.432 715.873C442.684 715.922 448.922 716.89 451.588 712.647C453.91 708.951 453 703.156 453 699L453 668L453 550L452.999 516C452.977 509.687 452.647 503.899 444.996 503.752M777.412 505.15C771.725 509.038 775.105 525.053 774.976 531C774.422 556.623 775 582.354 775 608C775 633.362 773.993 658.695 774 684C774.002 692.211 771.447 706.594 776.512 713.588C779.078 717.129 785.146 716.032 788.941 715.945C800.284 715.685 811.651 716 823 716L940 716C950.768 716 974.378 720.34 983.479 713.854C988.797 710.064 986 693.833 986 688L986 612L986 535C986 527.931 988.923 512.368 984.85 506.412C982.507 502.985 976.555 504 973 504L938 504L821 504L790 504C786.351 504 780.593 502.975 777.412 505.15z"/>
<path style="fill:#12279f; stroke:none;" d="M1215 504L1216 505L1215 504M247 505L247 506L253 506L247 505z"/>
<path style="fill:#794649; stroke:none;" d="M253 505L253 506L256 506L253 505z"/>
<path style="fill:#12279f; stroke:none;" d="M256 505L257 506L256 505z"/>
<path style="fill:#794649; stroke:none;" d="M257.667 505.333L258.333 505.667L257.667 505.333z"/>
<path style="fill:#12279f; stroke:none;" d="M259 505L259 506L270 506L259 505M271 505L271 506L275 506L271 505M278 505L278 506L282 506L278 505M418 505L418 506L423 506L418 505M427.667 505.333L428.333 505.667L427.667 505.333M431 505L431 506L444 506L431 505z"/>
<path style="fill:#794649; stroke:none;" d="M444 505L445 506L444 505z"/>
<path style="fill:#576ca5; stroke:none;" d="M245 549L246 549L247 508L395 508L432 508L446.283 509.717L448 521L449 549L449 660L450 623L450 542L450.999 516L448.479 506.472L436 505.999L406 506L292 506L258 506L245.959 507.15L244.999 518L245 549z"/>
<path style="fill:#794649; stroke:none;" d="M447 505L448 506L447 505M780 505L780 506L784 506L780 505z"/>
<path style="fill:#12279f; stroke:none;" d="M784 505L784 506L801 506L784 505M806 505L807 506L806 505M810 505L810 506L816 506L810 505M967 505L967 506L980 506L967 505z"/>
<path style="fill:#794649; stroke:none;" d="M980 505L981 506L980 505M778 506L779 507L778 506z"/>
<path style="fill:#576ca5; stroke:none;" d="M778 538L779 538C780.452 531.562 776.645 511.867 783.298 508.717C787.043 506.945 792.956 508 797 508L827 508L934 508L968 508C971.545 508 977.511 506.945 980.283 509.717C983.174 512.609 981.864 518.43 981.432 522C980.304 531.34 981.933 540.648 981.997 550C982.262 588.996 982 628.003 982 667C985.754 656.954 983 641.71 983 631C983 602.817 980.214 573.004 983.305 545C984.331 535.707 984.012 526.345 984 517C983.996 513.895 984.8 508.484 981.479 506.717C977.985 504.859 971.843 506 968 506L938 506L826 506L793 506C789.422 506 782.697 504.75 779.717 507.15C774.742 511.157 778 531.872 778 538z"/>
<path style="fill:#12279f; stroke:none;" d="M1215 506L1216 507L1215 506M244 507L245 508L244 507z"/>
<path style="fill:#794649; stroke:none;" d="M450 507L451 508L450 507M983 507L984 508L983 507z"/>
<path style="fill:#6d95fa; stroke:none;" d="M247 508C247 514.897 245.187 525.63 249.123 531.713C251.418 535.261 256.465 536.032 260 537.854C272.418 544.254 279.335 544.536 293 545.051C302.552 545.411 312.444 549.498 322.059 550.176C341.917 551.576 361.346 546.71 381 547.011C399.655 547.295 430.266 548.071 443 531L444 531L445 534C447.727 529.678 451.405 511.734 445.588 508.717C441.376 506.533 433.64 508 429 508L390 508L247 508z"/>
<path style="fill:#12279f; stroke:none;" d="M777 508L777 656L777 695L778.285 710.615L789 713.99L818 714L939 714L971 714L982.715 711.479L984 698L984 666L984 543L983 543L983 663L983 695C983 699.171 983.98 705.055 981.715 708.784C979.31 712.743 973.967 711.998 970 712L938 712L821 712L792 712C788.364 711.998 783.361 712.701 780.717 709.588C777.754 706.098 779 699.241 779 695L779 658C779 619.67 781.706 580.151 778.196 542C777.222 531.403 780.735 517.995 777 508z"/>
<path style="fill:#6d95fa; stroke:none;" d="M782 535C788.691 534.925 793.979 539.135 800 541.481C806.706 544.094 814.903 545.293 822 546.508C848.8 551.096 877.169 549.127 904 547.233C914.693 546.479 925.417 550.012 936 547.487C946.327 545.024 977.115 543.975 979 531L981 532C981.011 526.814 984.823 512.806 980.283 509.15C974.451 504.453 954.39 508 947 508L855 508L855 509L951 509C946.332 521.049 930.366 523.531 919 524.386C893.569 526.302 868.325 530.821 842.568 525.855C838.735 525.117 834.857 526.446 831.01 525.538C826.303 524.428 822.37 520.588 817.997 518.551C815.401 517.342 809.162 515.471 809.575 511.61C809.964 507.963 817.624 509.001 820 509L853 509C838.398 503.543 814.628 508 799 508C794.82 508 784.206 506.09 781.285 509.717C777.058 514.966 781.461 528.828 782 535z"/>
<path style="fill:#84a7f7; stroke:none;" d="M951 509L842 509C833.337 509.003 824.666 508.89 816.003 509.004C813.504 509.037 808.28 508.923 809.386 512.916C810.355 516.411 815.133 517.647 817.997 519.013C827.206 523.404 831.729 524.602 841.695 526.046C863.129 529.15 886.319 529.256 908 527.384C912.17 527.024 915.856 524.815 920 524.622C930.637 524.128 947.87 520.934 951 509z"/>
<path style="fill:#12279f; stroke:none;" d="M1216 508L1216 513L1217 513L1216 508M244 509L244 656L244 695L245.15 710.615L257 713.997L289 713.862L410 714L438.196 713.918L449.715 711.342L451 697L451 662L451 525L450 525L450 656C450 668.637 450.46 681.374 449.912 694C449.724 698.329 450.547 704.879 448.483 708.784C446.353 712.816 440.815 711.998 437 712L404 712L286 712C277.325 712 252.562 716.205 246.845 708.702C243.93 704.878 245 698.502 245 694L245 658L245 555C245 541.556 248.701 521.579 244 509z"/>
<path style="fill:#84a7f7; stroke:none;" d="M274 510L274 512C297.028 528.545 321.874 528 349 528C360.696 528 374.06 528.862 385.115 525.614C396.518 522.264 412.684 522.88 418 510C402.974 505.912 383.566 509 368 509L307 509C296.275 509 284.498 507.632 274 510z"/>
<path style="fill:#12279f; stroke:none;" d="M1217 514L1220 542L1221 542L1217 514z"/>
<path style="fill:#416bfd; stroke:none;" d="M246 515L247 692L252 689L256 690C261.369 681.6 279.944 677.111 289 673C290.199 678.597 295.327 674.247 299 673.694C306.043 672.635 316.851 675.229 324 676.222C343.327 678.907 361.147 674.38 380 674.111C390.757 673.957 402.679 676.849 413.083 679.417C426.067 682.621 443.076 682.388 445 700L446 700C452.392 682.216 449 659.638 449 641C449 602.699 450 564.21 448 526L447 526L446 534L445 534L444 531L443 531C424.965 548.121 398.792 546.708 376.01 547.017C358.094 547.259 340.503 551.459 322.332 550.041C312.934 549.307 303.34 545.515 294 545.042C279.773 544.32 272.998 543.59 260 537.359C256.541 535.7 252.181 534.891 249.707 531.713C246.057 527.023 247.959 520.24 246 515z"/>
<path style="fill:#13205f; stroke:none;" d="M12 518L12 521L13 521L12 518z"/>
<path style="fill:#416bfd; stroke:none;" d="M780 521L781 700L782 700L782 693L786 692L786 686C788.962 687.281 790.114 686.536 792 684L796 685C805.658 675.877 823.572 675.837 836 674.436C847.239 673.168 859.531 677 871 677C899.288 677 930.631 667.947 957.059 680.941C967.343 685.997 975.399 688.971 979 701L980 701C985.904 687.984 982 668.03 982 654L982 573C982 559.575 984.183 543.907 980 531L979 531C975.846 543.819 946.692 544.809 936 547.248C925.359 549.676 914.764 546.561 904 547.113C877.333 548.48 849.707 551.08 823 546.508C815.903 545.293 807.706 544.094 801 541.481C794.607 538.991 789.129 534.603 782 535L780 521z"/>
<path style="fill:#13205f; stroke:none;" d="M11 526L12 527L11 526M10.3333 531.667L10.6667 532.333L10.3333 531.667M10 534L11 535L10 534z"/>
<path style="fill:#0f33ec; stroke:none;" d="M778 538L778 545L779 545L778 538z"/>
<path style="fill:#12279f; stroke:none;" d="M1221 542L1221 549L1222 549L1221 542z"/>
<path style="fill:#5e1210; stroke:none;" d="M565.031 545.845C556.785 549.186 555.302 563.653 552.201 571C541.83 595.57 534.897 621.804 523.741 646C520.859 652.252 511.455 671.23 516.845 677.27C521.629 682.63 540.664 680.796 545.648 676.397C552.946 669.956 548.466 654.266 557.101 649.275C564.451 645.026 591.638 645.529 597.145 652.238C602.967 659.329 600.406 673.168 609.369 677.702C613.858 679.974 620.13 679 625 679C628.026 679 631.957 679.587 634.784 678.283C639.184 676.253 637.533 670.613 636.564 667C633.992 657.411 630.295 648.365 627.099 639C619.553 616.893 611.539 594.684 602.955 573C599.938 565.378 598.662 553.23 592.542 547.412C588.407 543.481 570.23 543.738 565.031 545.845M652.091 545.648C642.813 548.685 648 575.055 648 583C648 605.331 648.174 627.67 647.997 650C647.938 657.39 645.253 670.343 649.953 676.702C653.976 682.146 670.132 680.327 675.9 678.479C680.959 676.858 680.917 670.397 680.99 666C681.128 657.625 677.336 638.195 682.845 631.494C686.779 626.708 696.416 627.726 702 626.744C713.727 624.681 726.191 619.632 732.603 609C744.032 590.047 740.815 562.225 719.973 551.42C706.409 544.388 689.785 545.033 675 545.001C668.003 544.985 658.794 543.454 652.091 545.648z"/>
<path style="fill:#a31815; stroke:none;" d="M633 672C632.934 660.707 628.037 650.393 624.08 640C617.783 623.464 611.755 606.733 606.007 590C602.197 578.908 599.101 561.521 592.183 552.156C588.065 546.582 570.998 545.757 565.188 549.15C558.956 552.788 556.91 566.627 554.398 573C545.514 595.533 537.549 618.417 528.817 641C526.795 646.228 516.848 663.99 521.914 669.086C526.871 674.072 540.092 666.289 542.84 661.929C547.656 654.29 547.596 646.259 555.436 640.298C560.05 636.789 565.696 638.318 571 638.804C580.698 639.692 593.448 634.884 601.598 642.592C606.035 646.788 605.481 654.788 608.352 659.989C612.779 668.008 624.625 670.592 633 672M652.412 549.15C647.5 552.509 651.05 573.129 651.003 579C650.852 597.997 651 617.002 651 636C651 644.218 649.171 655.033 651.784 662.9C653.944 669.406 668.538 669.551 673.647 666.681C677.226 664.671 676.967 659.517 676.997 656C677.062 648.253 672.538 633.778 676.15 627.073C680.546 618.912 692.51 621.112 700 619.205C713.841 615.681 733.545 601.146 734.875 586C737.895 551.599 702.999 548 677 548C670.763 548 657.704 545.531 652.412 549.15z"/>
<path style="fill:#13205f; stroke:none;" d="M8 549L9 550L8 549z"/>
<path style="fill:#fa3132; stroke:none;" d="M653 551C653.64 557.123 657.829 560.443 664 560.844C680.571 561.92 691.243 554.299 708 562.542C712.218 564.617 723.583 576.332 728.251 572.787C734.633 567.941 717.466 556.878 714 555.496C696.283 548.432 671.627 548.606 653 551z"/>
<path style="fill:#12279f; stroke:none;" d="M1222 550L1222 554L1223 554L1222 550z"/>
<path style="fill:#576ca5; stroke:none;" d="M245.333 551.667L245.667 552.333L245.333 551.667z"/>
<path style="fill:#fa3132; stroke:none;" d="M591 565C593.423 552.569 576.311 545.309 566.591 552.15C564.091 553.909 560.818 561.394 563.875 563.79C566.963 566.21 573.596 562.572 577 562.196C581.898 561.656 586.258 564.22 591 565z"/>
<path style="fill:#576ca5; stroke:none;" d="M245.333 554.667L245.667 555.333L245.333 554.667z"/>
<path style="fill:#12279f; stroke:none;" d="M1222 555L1222 559L1223 559L1222 555z"/>
<path style="fill:#13205f; stroke:none;" d="M7 556L8 557L7 556z"/>
<path style="fill:#576ca5; stroke:none;" d="M245.333 558.667L245.667 559.333L245.333 558.667z"/>
<path style="fill:#13205f; stroke:none;" d="M7.33333 560.667L7.66667 561.333L7.33333 560.667z"/>
<path style="fill:#576ca5; stroke:none;" d="M245 562L246 563L245 562z"/>
<path style="fill:#5e1210; stroke:none;" d="M684.001 562.589C670.866 565.094 676.518 577.047 677.684 586C679.062 596.587 676.534 609.343 692 606.73C715.983 602.677 713.185 557.022 684.001 562.589z"/>
<path style="fill:#101011; stroke:none;" d="M685.156 569.845C679.181 572.492 681.174 580.947 681.692 586C682.529 594.181 679.935 608.758 693.989 602.911C709.798 596.335 702.351 562.231 685.156 569.845z"/>
<path style="fill:#13205f; stroke:none;" d="M6 570L6 573L7 573L6 570M1224 574L1225 575L1224 574M6 575L7 576L6 575z"/>
<path style="fill:#fa3132; stroke:none;" d="M594 575L595 576L594 575z"/>
<path style="fill:#5e1210; stroke:none;" d="M575.07 578.306C569.663 580.495 568.303 589.121 566.666 594C564.713 599.821 557.707 618.13 564.412 622.715C567.867 625.077 574.037 624.005 578 624C580.841 623.996 584.179 624.347 586.844 623.155C596.679 618.756 587.9 592.911 584.672 586.001C583.028 582.481 579.986 576.316 575.07 578.306z"/>
<path style="fill:#13205f; stroke:none;" d="M5 583L6 584L5 583M5 585L6 586L5 585M5.33333 587.667L5.66667 588.333L5.33333 587.667z"/>
<path style="fill:#101011; stroke:none;" d="M576 587C573.41 590.773 571.711 594.598 570.44 599C568.962 604.122 565.541 613.594 567.744 618.784C569.889 623.835 583.059 622.724 585.687 618.589C589.667 612.326 580.705 591.593 576 587z"/>
<path style="fill:#13205f; stroke:none;" d="M5.33333 594.667L5.66667 595.333L5.33333 594.667z"/>
<path style="fill:#fa3132; stroke:none;" d="M551 594L551 598L552 598L551 594M706 601C695.656 611.027 687.322 610.977 674 608C678.359 618.011 691.658 615.81 699.999 611.992C704.692 609.844 710.17 605.981 706 601z"/>
<path style="fill:#0f33ec; stroke:none;" d="M245 626L245 630L246 630L245 626z"/>
<path style="fill:#fa3132; stroke:none;" d="M559 626C562.772 635.239 591.807 637.612 593 626L559 626M538.333 631.667L538.667 632.333L538.333 631.667z"/>
<path style="fill:#13205f; stroke:none;" d="M5 634L5 637L6 637L5 634z"/>
<path style="fill:#0f33ec; stroke:none;" d="M245 637L245 686L247 711L248 711L248 706L249 711L249 712L398 712L435 712L448.04 710.283L449.889 696.695L450 660L449 660L446 700L445 700C443.353 683.772 427.548 681.167 414.115 678.824C382.72 673.35 352.841 678.439 321 675.968C314.158 675.437 306.813 673.383 300 673.582C295.704 673.707 292.126 677.01 289 673C281.237 675.323 259.09 682.43 256 690L252 689L247 692L246 657L245 637z"/>
<path style="fill:#13205f; stroke:none;" d="M5 638L6 639L5 638M5.33333 642.667L5.66667 643.333L5.33333 642.667M5 646L6 647L5 646M1224 655L1225 656L1224 655M6.33333 657.667L6.66667 658.333L6.33333 657.667M6 660L7 661L6 660M7 668L8 669L7 668z"/>
<path style="fill:#0f33ec; stroke:none;" d="M779 668L779 699L780.717 710.283L793 712L826 712L939 712L968 712L980.479 710.85L983 700L983 673L982 673L980 701L979 701C976.61 687.861 960.618 679.052 948.278 676.969C936.374 674.959 925.302 673.089 913.059 674.087C904.868 674.754 896.957 677.216 888.568 677.127C871.85 676.951 853.377 672.825 837 674.2C825.748 675.144 803.375 675.126 796 685L792 684C790.05 686.455 788.713 688.035 786 686L786 692L782 693L782 700L781 700L779 668z"/>
<path style="fill:#13205f; stroke:none;" d="M7 671L7 674L8 674L7 671M8 680L9 681L8 680M9.33333 686.667L9.66667 687.333L9.33333 686.667M9.33333 689.667L9.66667 690.333L9.33333 689.667M10.3333 694.667L10.6667 695.333L10.3333 694.667M10.3333 697.667L10.6667 698.333L10.3333 697.667z"/>
<path style="fill:#416bfd; stroke:none;" d="M979 702L980 709L981 709L979 702z"/>
<path style="fill:#13205f; stroke:none;" d="M11 703L12 704L11 703z"/>
<path style="fill:#416bfd; stroke:none;" d="M446 703L446 707L443 708L443 709C446.117 707.773 447.026 706.258 446 703M781 704L780 710L784 711L781 704z"/>
<path style="fill:#13205f; stroke:none;" d="M11 705L12 706L11 705z"/>
<path style="fill:#416bfd; stroke:none;" d="M248 706C247.506 709.137 247.964 710 251 711L248 706z"/>
<path style="fill:#13205f; stroke:none;" d="M1218 710L1219 711L1218 710z"/>
<path style="fill:#101011; stroke:none;" d="M1166.33 713.667L1166.67 714.333L1166.33 713.667z"/>
<path style="fill:#13205f; stroke:none;" d="M13 715L13 718L14 718L13 715M14 723L15 724L14 723M1214 733L1215 734L1214 733M19 746L20 747L19 746M20 752L21 753L20 752M21 756L22 757L21 756M22.3333 760.667L22.6667 761.333L22.3333 760.667M518.042 761.646C512.768 762.775 512.881 767.461 512.46 772C511.436 783.022 511.1 796.975 512.432 808C514.203 822.655 512.269 837.385 512.018 852.027C511.611 875.715 512.51 899.373 512.263 923C512.136 935.065 507.562 960.217 514.149 970.774C516.714 974.885 522.983 973.035 527 973.003C539.032 972.909 550.997 973.099 563 973.003C597.966 972.723 633.038 972.436 668 973.01C680.02 973.208 691.916 972.996 704 973C708.459 973.002 714.506 974.635 718.762 973.528C722.82 972.473 723.758 966.536 724.252 963C725.819 951.793 723 938.521 723 927C723 886.504 724.979 845.343 723.059 805C722.569 794.699 729.03 771.905 721.911 763.531C719.015 760.125 712.896 761.966 709 761.997C697.002 762.092 684.999 762 673 762L566 762C551.255 762 532.292 758.594 518.042 761.646z"/>
<path style="fill:#5e1210; stroke:none;" d="M245.297 763.15C238.41 767.431 240.998 783.188 241 790C241.01 817.264 242 844.664 242 872C242 895.614 242.662 919.495 241.973 943C241.752 950.547 237.836 964.019 243.089 970.489C246.706 974.945 253.125 973.271 258 973.06C268.517 972.604 279.399 974 290 974C326.872 974 364.243 971.937 401 973.027C413.09 973.386 424.897 974.31 437 973.196C440.838 972.843 446.254 974.028 449.647 971.85C455.912 967.83 453 951.414 453 945L453 864C453 840.256 452.401 816.428 452.891 792.695C453.037 785.63 455.577 770.302 450.965 764.521C448.143 760.983 441.976 762 438 762L404 762L289 762L258 762C254.201 762 248.676 761.049 245.297 763.15M779.156 762.845C775.037 764.68 774.094 769.946 774.257 774C774.739 786.007 775 797.953 775 810C775 848.68 774 887.387 774 926C774 934.632 774.88 943.425 774.689 952C774.56 957.786 772.468 964.642 775.953 969.899C779.151 974.722 784.934 974 790 974L824 974L936 974C948.845 974 970.937 978.016 982.647 972.155C986.797 970.078 985.995 963.833 986 960L986 926L986 807C986 797.025 986.177 787.032 985.945 777.059C985.855 773.212 986.596 767.791 983.965 764.602C981.096 761.126 974.984 762.001 971 762C958.795 761.996 946.145 761.058 934 762.302C897.563 766.032 859.625 762 823 762C811.323 762 789.742 758.128 779.156 762.845z"/>
<path style="fill:#794649; stroke:none;" d="M244 774L245 774C245.254 762.591 255.192 765 264 765L321 765L415 765C422.17 765 443.028 761.463 448.283 766.717C451.347 769.782 450 777.065 450 781L450 819C454.228 807.687 451 790.078 451 778C451 774.195 452.38 766.762 448.588 764.334C445 762.037 438.954 763.64 435 763.888C426.057 764.451 416.96 764 408 764L297 764C284.35 764 271.613 763.44 259 763.944C255.358 764.089 248.752 762.709 245.717 765.15C243.359 767.047 244.007 771.34 244 774z"/>
<path style="fill:#12279f; stroke:none;" d="M516 764L515 768L516 768L516 764z"/>
<path style="fill:#576ca5; stroke:none;" d="M516 830L517 830L517.999 785L519.717 767.845L532 766L563 766L677 766L706 766L717.339 767.717L719.056 779L719.059 805L720 915L721 879L721 801L721 775L719.283 765.15L708 764L678 764L562 764L529 764L517.013 765.717L516 783L516 830z"/>
<path style="fill:#12279f; stroke:none;" d="M720 764L721 765L720 764z"/>
<path style="fill:#794649; stroke:none;" d="M777 770L778 770C783.534 760.12 811.733 765 822 765L940 765L970 765C973.34 765 978.669 764.104 981.283 766.717C984.867 770.302 983 780.338 983 785L983 834C988.268 819.904 984 797.082 984 782C984 777.965 985.8 767.982 982.283 765.15C979.81 763.159 974.945 764 972 764L946 764L843 764L793 764C786.558 764 778.176 761.905 777 770z"/>
<path style="fill:#13205f; stroke:none;" d="M23 765L24 766L23 765z"/>
<path style="fill:#a55859; stroke:none;" d="M245 818L246 818L247 767L448 767C453.54 809.437 449 855.185 449 898C452.374 888.97 450 875.614 450 866L450 797C450 790.917 453.245 770.146 448.283 766.15C445.635 764.017 440.161 765 437 765L407 765L292 765L259 765C255.628 765 249.534 763.881 246.717 766.15C243.573 768.682 245 776.444 245 780L245 818M779 814L780 814C780 804.095 780.756 793.842 779.568 784C779.015 779.425 777.884 772.303 781.658 768.707C785.377 765.163 792.401 766.255 797 766.494C806.548 766.992 816.403 766 826 766L938 766C948.34 766 958.709 765.63 968.997 766.688C972.254 767.023 976.86 766.003 979.647 768.117C982.776 770.491 981.998 775.564 982 779L982 806L982 918L983 882L983 802L983 776L981.283 766.15L970 765L940 765L825 765L792 765L779.717 766.717L778 779L779 814z"/>
<path style="fill:#fb5857; stroke:none;" d="M254 766L254 767L260 767L254 766z"/>
<path style="fill:#f58183; stroke:none;" d="M247 767L248 770C256.342 767.93 261.177 769.11 263 778C271.135 779.43 276.052 786.533 284 788.207C305.291 792.692 326.47 792 348 792C370.148 792 397.041 794.433 418 785.822C423.779 783.447 428.02 778.597 433 775L431 771L443 768L425 766L387 766L247 767z"/>
<path style="fill:#fb5857; stroke:none;" d="M441 766L442 767L441 766z"/>
<path style="fill:#6d95fa; stroke:none;" d="M519 791C531.845 797.838 547.185 804.703 562.027 806.324C568.528 807.034 575.257 805.511 582 806.193C613.99 809.431 647.186 808.989 679 804.885C692.132 803.191 706.485 791.117 719 793C719 787.384 722.415 769.609 716.615 766.717C713.205 765.017 707.705 766 704 766L674 766L567 766L534 766C530.042 766 524.02 764.922 520.412 766.845C514.938 769.762 518.345 785.986 519 791z"/>
<path style="fill:#12279f; stroke:none;" d="M721 766L722 767L721 766z"/>
<path style="fill:#fb5857; stroke:none;" d="M787 766L787 767L792 767L787 766z"/>
<path style="fill:#f58183; stroke:none;" d="M781 767L781 769C786.938 768.844 792.933 767.626 794 775C800.289 778.366 807.464 784.275 814.059 786.418C834.638 793.104 856.758 792 878 792C893.501 792 909.654 793.229 925 790.69C938.956 788.38 951.519 781.293 965 779C966.025 768.307 972.73 767.795 982 769L968 766.432L926 766L781 767z"/>
<path style="fill:#fb5857; stroke:none;" d="M975 766L976 767L975 766z"/>
<path style="fill:#13205f; stroke:none;" d="M24 767L25 768L24 767z"/>
<path style="fill:#fb5857; stroke:none;" d="M431 771L433 775C426.863 778.071 422.588 783.825 416 786.198C398.771 792.403 378.045 792 360 792C335.303 792 311.487 792.404 287 788.556C277.828 787.115 272.271 779.004 263 778C261.494 767.243 255.814 769.347 247 769C242.143 786.854 246.998 808.704 247 827L250 822L252 822C254.828 828.452 258.312 825.951 263.79 828.138C266.967 829.406 268.857 832.681 272.175 833.601C277.224 835.003 282.851 833.252 288 833.627C325.212 836.34 364.68 833.51 402 833L402 838L412 838C417.295 828.276 428.236 826.604 438 825L440 830L444 829C445.689 848.233 439.711 875.098 447 893L448 893C448 874.066 447.153 854.911 448.059 836C449.12 813.868 451.98 788.924 448 767L431 771z"/>
<path style="fill:#84a7f7; stroke:none;" d="M542 768L542 769L550 771L550 775C554.84 775.443 557.58 778.579 562.063 779.913C569.718 782.191 578.151 782.973 586 784.452C605.968 788.215 632.012 786.131 652 783.332C660.167 782.188 668.149 783.166 676 780L676 779L672 778L672 777C676.052 775.928 682.955 775.524 684 771L691 768C672.108 763.738 649.354 767 630 767C601.7 767 569.846 762.944 542 768z"/>
<path style="fill:#794649; stroke:none;" d="M721 767L722 768L721 767z"/>
<path style="fill:#12279f; stroke:none;" d="M721 768L721 913L720.229 952.973L718.874 967.588L708 970L680 970L562 970L530 970L518.139 967.588L516 951L516 914L516 769L515 769L515 919L515 956C515 959.992 513.726 967.037 516.845 970.155C519.483 972.793 524.626 971.999 528 972L557 972L675 972L708 972C711.683 972 717.376 972.968 719.91 969.588C722.732 965.822 721.998 959.41 722 955L722 921L722 815C722 801.283 725.795 780.832 721 768z"/>
<path style="fill:#fb5857; stroke:none;" d="M780 768L780 843L781 843L783 823C787.752 823.451 793.378 822.084 794 828C799.703 828.195 809.497 829.168 813 834L851 833.371L921.986 832.958L938 828L938 832L931 832L931 833L955 834C961.965 830.082 971.066 828.046 979 828L981 905L982 905L982 769C972.475 767.272 965.6 768.115 965 779C958.167 779.65 952.316 783.701 946 786.115C939.398 788.637 930.977 789.535 924 790.69C909.291 793.124 893.856 792 879 792C857.844 792 835.486 792.94 815.027 786.418C807.811 784.118 801.339 777.924 794 775C794.31 766.539 785.816 769.147 780 768z"/>
<path style="fill:#13205f; stroke:none;" d="M1206 768L1207 769L1206 768z"/>
<path style="fill:#a31815; stroke:none;" d="M777 770L777 921L777 956C777 960.603 775.91 966.21 781 968C776.334 952.281 779 933.249 779 917L779 819C779 804.769 781.966 783.289 777 770z"/>
<path style="fill:#13205f; stroke:none;" d="M25 771L26 772L25 771z"/>
<path style="fill:#a31815; stroke:none;" d="M244 774L244 916L244 953L245.412 968.588L256 971L285 971L406 971L438 971L449.715 968.588L451 956L451 928L451 819L450 819C450 854.017 449 889.022 449 924L449 953C449 956.843 449.936 962.349 447.85 965.784C445.441 969.753 439.798 969.179 435.804 969.082C425.21 968.823 414.596 969 404 969L287 969L259 969C255.364 968.998 250.361 969.701 247.717 966.588C244.899 963.268 246 957.028 246 953L246 917C246 882.344 246.717 847.578 245.059 813C244.491 801.149 248.161 785.134 244 774z"/>
<path style="fill:#13205f; stroke:none;" d="M26.3333 775.667L26.6667 776.333L26.3333 775.667M27.3333 778.667L27.6667 779.333L27.3333 778.667M28 783L29 784L28 783z"/>
<path style="fill:#fb5857; stroke:none;" d="M418 784L419 785L418 784z"/>
<path style="fill:#416bfd; stroke:none;" d="M518 787C516.168 821.999 517 856.909 517 892C517 912.211 514.517 934.333 520 954L527 948L526 944C533.043 941.329 539.513 936.773 547.015 935.339C571.902 930.585 600.602 934 626 934C632.992 934 656.479 938.169 659 931L663 931L663 934C681.234 934 700.554 935.167 712 951L713 951L716 949L718 957L719 957C722.538 916.451 720 874.725 720 834C720 823.922 719.541 814.033 719.059 804C718.914 800.982 720.038 795.435 717.283 793.296C712.629 789.683 706.087 795.955 702 797.6C687.083 803.605 673.727 804.302 658 806.342C632.896 809.598 607.147 808.28 582 806.104C575.181 805.514 567.584 807.05 561.059 805.942C545.999 803.384 532.906 795.789 519 791L518 787z"/>
<path style="fill:#13205f; stroke:none;" d="M31 793L32 794L31 793M32 796L33 797L32 796M33 799L34 800L33 799M34 802L35 803L34 802M91 802L92 803L91 802M92.3333 804.667L92.6667 805.333L92.3333 804.667M35 805L36 806L35 805z"/>
<path style="fill:#fa3132; stroke:none;" d="M779 814L779 835L780 835L779 814M246 815L246 926L246 955C246 958.417 245.109 963.604 247.15 966.588C249.493 970.015 255.445 969 259 969L290 969L409 969C418.339 969 427.667 968.971 437 969.236C440.326 969.331 445.704 969.731 447.85 966.588C452.818 959.311 449 938.727 449 930L449 831L448 831L448 893L447 893L444 829L440 830L438 825C428.886 825.454 415.565 827.957 412 838L402 838L402 833C376.067 833.149 350.006 833 324 833C312.334 833 300.63 834.792 289 833.578C283.781 833.033 278.188 834.946 273.087 833.601C269.397 832.629 267.382 828.989 263.79 827.768C258.371 825.926 255.488 827.462 252 822L250 822L247 827L246 815M783 823L781 843L780 840L779 840L779 934C779 941.803 775.661 961.115 781.145 967.283C783.506 969.939 788.844 969 792 969L820 969L937 969C947.644 969 958.364 968.631 969 969.056C972.49 969.195 978.316 970.588 980.85 967.309C985.755 960.961 982 939.944 982 932C982 917.549 980.117 903.357 980.003 889C979.843 868.835 981.612 848.009 979 828C971.254 828.016 961.442 829.424 955 834L931 833L931 832L938 832L938 828C931.095 828.019 927.359 832.58 920.996 832.958C897.818 834.334 874.225 832.884 851 833.127C840.108 833.241 822.832 829.68 813 834C811.885 828.798 798.755 828 794 828C794.599 821.242 787.828 823.042 783 823M969 827L975 827C973.786 822.683 970.755 823.366 969 827z"/>
<path style="fill:#13205f; stroke:none;" d="M42 826L43 827L42 826z"/>
<path style="fill:#fa3132; stroke:none;" d="M957 829L962 830L963 826L957 829M950 830L955 830L955 827L950 830z"/>
<path style="fill:#13205f; stroke:none;" d="M43 828L44 829L43 828z"/>
<path style="fill:#fa3132; stroke:none;" d="M282 828L283 832L287 828L282 828M316 831L366 831L366 828L330 828C325.172 828 319.141 826.753 316 831M395 831L401 831L401 828L395 831M836 829L836 831L847 832L847 828L836 829M866 831L919 831L919 828L880 828C875.172 828 869.141 826.753 866 831M945 829L945 831L949 832L949 828L945 829z"/>
<path style="fill:#13205f; stroke:none;" d="M103 833L104 834L103 833z"/>
<path style="fill:#fb5857; stroke:none;" d="M247 834L247 893L248 893L249 834L247 834z"/>
<path style="fill:#a31815; stroke:none;" d="M983 834C983 866.673 982 899.398 982 932C982 939.582 985.751 961.715 980.283 967.299C977.271 970.376 970.852 969.02 967 969.003C954.667 968.946 942.333 969 930 969L781 969L781 971C829.912 971.276 879.009 971 928 971L966 971C970.26 971 977.815 972.42 981.479 969.85C987.395 965.7 984 944.606 984 938L984 867C984 857.112 986.47 843.284 983 834z"/>
<path style="fill:#a55859; stroke:none;" d="M779 835L779 840L780 840L779 835z"/>
<path style="fill:#13205f; stroke:none;" d="M46 836L47 837L46 836M104 837L105 838L104 837z"/>
<path style="fill:#576ca5; stroke:none;" d="M516 837L516 842L517 842L516 837z"/>
<path style="fill:#13205f; stroke:none;" d="M47 839L48 840L47 839M49.3333 843.667L49.6667 844.333L49.3333 843.667z"/>
<path style="fill:#576ca5; stroke:none;" d="M516 843L517 844L516 843z"/>
<path style="fill:#0f33ec; stroke:none;" d="M516 844L516 939C516 945.096 512.986 965.966 519.411 969.283C522.981 971.125 529.093 970 533 970L565 970L680 970L708 970C711.112 970 716.592 970.966 718.877 968.283C722.236 964.339 720.335 956.629 720 952L719 952L719 957L718 957L716 949L713 951L712 951C703.381 933.925 679.669 934 663 934L663 931L659 931C654.181 938.351 630.485 934 622 934C589.775 934 555.384 929.042 526 944L527 948L520 954L517 879L516 844z"/>
<path style="fill:#13205f; stroke:none;" d="M54.3333 855.667L54.6667 856.333L54.3333 855.667M112 857L113 858L112 857M56 860L57 861L56 860M58.3333 864.667L58.6667 865.333L58.3333 864.667M60 869L61 870L60 869z"/>
<path style="fill:#101011; stroke:none;" d="M116.333 871.667L116.667 872.333L116.333 871.667z"/>
<path style="fill:#13205f; stroke:none;" d="M62 874L63 875L62 874M71 892L72 893L71 892M72 894L73 895L72 894M73 896L74 897L73 896M74 898L75 899L74 898M75 900L76 901L75 900M1155 900L1156 901L1155 900z"/>
<path style="fill:#a55859; stroke:none;" d="M449 901L449 905L450 905L449 901z"/>
<path style="fill:#13205f; stroke:none;" d="M76 902L77 903L76 902M1154 902L1155 903L1154 902M81 911L82 912L81 911M82 912L83 913L82 912z"/>
<path style="fill:#0f33ec; stroke:none;" d="M720 915L720 918L721 918L720 915z"/>
<path style="fill:#13205f; stroke:none;" d="M85 918L86 919L85 918z"/>
<path style="fill:#576ca5; stroke:none;" d="M720 918L721 919L720 918z"/>
<path style="fill:#13205f; stroke:none;" d="M1145 918L1146 919L1145 918M86 919L87 920L86 919z"/>
<path style="fill:#0f33ec; stroke:none;" d="M720 919L720 951L721 951L720 919z"/>
<path style="fill:#13205f; stroke:none;" d="M87 921L88 922L87 921M89 925L90 926L89 925M91 928L92 929L91 928M94 933L95 934L94 933M95 935L96 936L95 935M1135 935L1136 936L1135 935M96 936L97 937L96 936M97 938L98 939L97 938M98 939L99 940L98 939M102 946L103 947L102 946M1128 946L1129 947L1128 946z"/>
<path style="fill:#416bfd; stroke:none;" d="M718 960L718 964L719 964L718 960z"/>
<path style="fill:#13205f; stroke:none;" d="M112 961L113 962L112 961z"/>
<path style="fill:#416bfd; stroke:none;" d="M717 965L716 969L719 969L717 965z"/>
<path style="fill:#13205f; stroke:none;" d="M117 968L118 969L117 968z"/>
<path style="fill:#416bfd; stroke:none;" d="M519 968L520 969L519 968z"/>
<path style="fill:#794649; stroke:none;" d="M778 968L781 971L778 968z"/>
<path style="fill:#a55859; stroke:none;" d="M780.333 968.667L780.667 969.333L780.333 968.667z"/>
<path style="fill:#794649; stroke:none;" d="M245 969L246 970L245 969M982 970L983 971L982 970z"/>
<path style="fill:#13205f; stroke:none;" d="M1111 971L1112 972L1111 971M120 972L121 973L120 972M123 976L124 977L123 976M124 978L125 979L124 978M125 979L126 980L125 979M126 980L127 981L126 980M1103 982L1104 983L1103 982M131 987L132 988L131 987M138 996L139 997L138 996M142 1001L143 1002L142 1001M143 1002L144 1003L143 1002M144 1003L145 1004L144 1003M1084 1006L1085 1007L1084 1006M147 1007L148 1008L147 1007M148 1008L149 1009L148 1008M150 1010L151 1011L150 1010M151 1011L152 1012L151 1011M154 1015L155 1016L154 1015M160 1022L161 1023L160 1022M162 1024L163 1025L162 1024M164 1026L165 1027L164 1026M1059 1034L1060 1035L1059 1034M174 1037L175 1038L174 1037M175 1038L176 1039L175 1038M1055 1038L1056 1039L1055 1038M176 1039L177 1040L176 1039M179 1042L180 1043L179 1042M181 1044L182 1045L181 1044M183 1046L184 1047L183 1046M184 1047L185 1048L184 1047M186 1049L187 1050L186 1049M188 1051L189 1052L188 1051M190 1053L191 1054L190 1053M191 1054L192 1055L191 1054M192 1055L193 1056L192 1055M1038 1055L1039 1056L1038 1055M205 1067L206 1068L205 1067M206 1068L207 1069L206 1068M214 1075L215 1076L214 1075M215 1076L216 1077L215 1076M221 1081L222 1082L221 1081M1006 1084L1007 1085L1006 1084M228 1087L229 1088L228 1087M229 1088L230 1089L229 1088M1000 1089L1001 1090L1000 1089M233 1091L234 1092L233 1091M238 1095L239 1096L238 1095M991 1096L992 1097L991 1096M242 1098L243 1099L242 1098M982 1103L983 1104L982 1103M250 1104L251 1105L250 1104M251 1105L252 1106L251 1105M252 1106L253 1107L252 1106M258 1110L259 1111L258 1110M971 1111L972 1112L971 1111M264 1114L265 1115L264 1114M265 1115L266 1116L265 1115M961 1118L962 1119L961 1118M274 1121L275 1122L274 1121M955 1122L956 1123L955 1122M277 1123L278 1124L277 1123M949 1126L950 1127L949 1126M283 1127L284 1128L283 1127M286 1129L287 1130L286 1129M944 1129L945 1130L944 1129M288 1130L289 1131L288 1130M291 1132L292 1133L291 1132M938 1133L939 1134L938 1133M297 1136L298 1137L297 1136M302 1139L303 1140L302 1139M316 1147L317 1148L316 1147M318 1148L319 1149L318 1148M320 1149L321 1150L320 1149M909 1150L910 1151L909 1150M323 1151L324 1152L323 1151M907 1151L908 1152L907 1151M325 1152L326 1153L325 1152M329 1154L330 1155L329 1154M331 1155L332 1156L331 1155M333 1156L334 1157L333 1156M335 1157L336 1158L335 1157M337 1158L338 1159L337 1158M880 1165L881 1166L880 1165M878 1166L879 1167L878 1166M361 1170L362 1171L361 1170M869 1170L870 1171L869 1170M867 1171L868 1172L867 1171M366 1172L367 1173L366 1172M368 1173L369 1174L368 1173M851 1178L852 1179L851 1178M381 1179L382 1180L381 1179M849 1179L850 1180L849 1179M389 1182L390 1183L389 1182M392 1183L393 1184L392 1183M394 1184L395 1185L394 1184M836 1184L837 1185L836 1184M828 1187L829 1188L828 1187M826 1188L827 1189L826 1188M410 1190L411 1191L410 1190M413 1191L414 1192L413 1191M817 1191L818 1192L817 1191M416 1192L417 1193L416 1192M419 1193L420 1194L419 1193M805 1195L806 1196L805 1195M428 1196L429 1197L428 1196M431 1197L432 1198L431 1197M438 1199L439 1200L438 1199M445 1201L446 1202L445 1201M448 1202L449 1203L448 1202M452 1203L453 1204L452 1203M775 1204L776 1205L775 1204M467 1207L468 1208L467 1207M475.667 1209.33L476.333 1209.67L475.667 1209.33M480 1210L481 1211L480 1210M484 1211L485 1212L484 1211M741 1212L742 1213L741 1212M737 1213L738 1214L737 1213M504 1215L505 1216L504 1215M726 1215L727 1216L726 1215M510 1216L511 1217L510 1216M721 1216L722 1217L721 1216M515 1217L516 1218L515 1217M715 1217L716 1218L715 1217M709 1218L710 1219L709 1218M528 1219L529 1220L528 1219M703 1219L704 1220L703 1219M535 1220L536 1221L535 1220M544 1221L545 1222L544 1221M686.667 1221.33L687.333 1221.67L686.667 1221.33M552.667 1222.33L553.333 1222.67L552.667 1222.33M563 1223L564 1224L563 1223M666.667 1223.33L667.333 1223.67L666.667 1223.33M577.667 1224.33L578.333 1224.67L577.667 1224.33M653 1224L654 1225L653 1224M593 1225L594 1226L593 1225M596 1225L597 1226L596 1225M598.667 1225.33L599.333 1225.67L598.667 1225.33M601 1225L602 1226L601 1225M631.667 1225.33L632.333 1225.67L631.667 1225.33M634.667 1225.33L635.333 1225.67L634.667 1225.33M637.667 1225.33L638.333 1225.67L637.667 1225.33z"/>
</svg>
